PathFileType	4	(X/Y/Z)	C:/Users/opensim2020/Desktop/walking_exp_matlab/subject06_walking22_straight_04.trc	
DataRate	CameraRate	NumFrames	NumMarkers	Units	OrigDataRate	OrigDataStartFrame	OrigNumFrames	
100.00	100.00	4	44	mm	100.00	2226	102	
Frame#	Time	LFHD			RFHD			LBHD			RBHD			C7			T10			CLAV			STRN			RBAK			LSHO			LUPA			LELB			LFRM			LWRA			LWRB			LFIN			RSHO			RUPA			RELB			RFRM			RWRA			RWRB			RFIN			LASI			RASI			LPSI			RPSI			LTHI			LKNE			LTIB			LANK			LHEE			LTOE			RTHI			RKNE			RTIB			RANK			RHEE			RTOE			*39			*40			*41			*42			*43			
		X1	Y1	Z1	X2	Y2	Z2	X3	Y3	Z3	X4	Y4	Z4	X5	Y5	Z5	X6	Y6	Z6	X7	Y7	Z7	X8	Y8	Z8	X9	Y9	Z9	X10	Y10	Z10	X11	Y11	Z11	X12	Y12	Z12	X13	Y13	Z13	X14	Y14	Z14	X15	Y15	Z15	X16	Y16	Z16	X17	Y17	Z17	X18	Y18	Z18	X19	Y19	Z19	X20	Y20	Z20	X21	Y21	Z21	X22	Y22	Z22	X23	Y23	Z23	X24	Y24	Z24	X25	Y25	Z25	X26	Y26	Z26	X27	Y27	Z27	X28	Y28	Z28	X29	Y29	Z29	X30	Y30	Z30	X31	Y31	Z31	X32	Y32	Z32	X33	Y33	Z33	X34	Y34	Z34	X35	Y35	Z35	X36	Y36	Z36	X37	Y37	Z37	X38	Y38	Z38	X39	Y39	Z39	X40	Y40	Z40	X41	Y41	Z41	X42	Y42	Z42	X43	Y43	Z43	X44	Y44	Z44	

39	0.380	-878.69611	163.76637	1648.50659	-1010.90076	153.48413	1646.96594	-893.96973	302.03851	1612.35535	-1022.29980	289.26755	1615.22498	-947.88660	312.36362	1452.03491	-957.90265	359.19608	1124.01257	-958.00635	205.49422	1370.57935	-958.32001	172.20340	1195.36670	-1019.75696	399.44812	1286.73401	-792.54077	246.61938	1402.27173	-717.46008	239.78532	1201.23645	-703.01697	239.33295	1088.41833	-685.12189	191.47739	944.92902	-733.71326	116.53848	843.14453	-693.26685	172.20335	826.95209	-695.15320	117.08263	755.85236	-1113.85803	266.04886	1406.48547	-1203.84460	342.47849	1223.53992	-1221.65625	357.70740	1102.32129	-1243.90771	363.78015	982.59882	-1218.05542	327.54666	834.68079	-1258.44653	381.57083	845.71643	-1259.55176	359.09470	763.31281	-864.06818	176.98732	963.41437	-1081.50867	194.50693	967.75403	-881.48322	336.21487	991.85968	-1048.39587	341.85678	987.97394	-808.00903	239.73434	647.12878	-835.08380	240.86987	483.32233	-845.75073	308.66577	233.26698	-894.33936	339.59653	65.81098	-938.12598	383.02390	54.11204	-899.86230	198.02301	35.46832	-1142.51587	162.93388	645.94470	-1123.82446	108.05370	532.49646	-1111.09766	206.21611	289.62250	-1062.96863	272.78619	117.50997	-1010.96039	309.31058	99.92689	-1092.59900	140.51105	50.77219	-942.89276	252.65923	1703.71008												 
40	0.390	-879.91650	149.39561	1647.63416	-1011.59381	139.29292	1645.94421	-894.53918	287.83609	1611.50781	-1022.92102	275.15878	1614.23059	-948.10541	298.16809	1451.14758	-958.09735	345.27975	1123.10559	-958.18597	191.47914	1369.59290	-957.89099	158.27242	1194.40125	-1019.31995	385.44180	1285.55432	-792.79474	232.53230	1401.59717	-716.79370	223.56538	1201.05603	-701.62177	220.84659	1088.40503	-684.57825	167.79889	946.72333	-733.55304	88.09882	848.90326	-693.73956	143.18773	829.60364	-695.84332	84.55402	761.39844	-1114.15979	252.24660	1405.05432	-1202.96631	331.57553	1223.06885	-1220.95581	348.51575	1102.12329	-1243.56921	358.32187	982.67853	-1218.59924	326.86911	833.33374	-1258.75745	380.91422	846.42731	-1260.11377	361.50943	763.23547	-862.58087	164.93980	961.87823	-1079.88391	179.60847	966.82581	-882.32300	323.54813	990.90460	-1049.32764	326.95465	987.21790	-807.85303	231.58075	646.23541	-834.90314	235.65881	482.31943	-845.70917	305.99643	232.86760	-894.58362	339.15320	65.97044	-938.40729	382.74426	54.58581	-899.79822	197.84044	35.34787	-1142.68555	145.19907	646.80334	-1123.13879	90.03249	533.54846	-1111.81799	176.19875	284.87756	-1064.40771	231.43663	108.55381	-1012.21729	266.63312	88.64999	-1094.52380	95.69288	49.83800	-943.57904	238.45610	1702.75842												 
41	0.400	-880.25653	135.26718	1646.51550	-1012.29706	125.17578	1644.66028	-895.02618	273.72617	1610.44019	-1023.67072	261.27954	1612.98523	-948.45770	284.08835	1450.05969	-958.39966	331.39227	1121.91614	-958.43524	177.43710	1368.34888	-957.43274	144.31685	1193.12329	-1019.00348	371.44781	1284.10901	-793.08478	218.39661	1400.67407	-716.24329	207.40823	1200.62292	-700.37402	203.06108	1087.94666	-683.94922	144.21378	948.44293	-733.56805	60.18097	854.91956	-694.04102	114.64152	832.63562	-696.64246	52.44437	767.46619	-1114.45898	238.24345	1403.39087	-1202.43982	320.24277	1222.41296	-1220.30640	339.25900	1101.79688	-1243.25708	352.70120	982.73346	-1219.47815	326.03302	832.36639	-1258.96899	379.96103	847.38202	-1261.15747	363.42947	763.65222	-861.02216	152.21153	960.44269	-1078.65869	164.38716	965.66327	-883.18817	310.79391	989.66321	-1050.23706	312.09851	986.06171	-807.87128	222.88805	645.11987	-834.56506	229.25046	481.09448	-845.70709	303.11710	232.63605	-894.81018	338.66193	66.18920	-938.64117	382.38727	55.08736	-899.93689	197.58569	35.13662	-1142.99902	127.94867	646.90778	-1122.60388	72.72087	533.92267	-1112.32617	146.38725	280.27951	-1065.90698	189.81854	100.36895	-1013.86371	223.93591	78.57476	-1096.20715	50.87225	49.26052	-944.27625	224.26390	1701.55737												 
42	0.410	-881.02203	121.02398	1645.13562	-1013.07202	111.03780	1643.09802	-895.65143	259.46323	1608.96985	-1024.37622	247.06674	1611.34192	-948.81714	269.86057	1448.71228	-958.86633	317.55637	1120.53503	-958.68518	163.28897	1366.81580	-957.01971	130.45042	1191.58264	-1018.85388	357.39401	1282.54749	-793.40167	204.25455	1399.47913	-715.76251	191.34290	1199.87854	-699.13422	184.84450	1087.48474	-683.24988	120.72665	950.31567	-733.75885	32.66409	861.19086	-694.65063	86.17088	835.91217	-697.50482	20.71836	774.02374	-1114.79858	224.16158	1401.48828	-1201.80042	308.99561	1221.55591	-1219.72351	329.97668	1101.35437	-1243.02747	346.85895	982.80634	-1220.33008	325.08600	831.32623	-1259.12256	378.37967	848.34027	-1261.87634	364.92120	764.12341	-859.77606	139.60390	958.78229	-1077.64307	149.15704	964.23169	-884.01349	297.98309	988.12701	-1051.03430	297.15631	984.50195	-808.16052	213.95894	643.79785	-834.57312	222.79839	479.81818	-846.01593	299.98862	232.42645	-895.11151	338.07059	66.42666	-938.94910	381.96225	55.66539	-899.68127	197.38556	35.08899	-1143.39624	111.28974	646.22894	-1122.03931	55.74401	533.31970	-1113.34790	116.22406	275.61292	-1067.50500	148.06326	93.02273	-1015.25562	180.23976	69.15099	-1097.52002	6.12111	49.27443	-945.10785	210.15967	1700.02893												 
